<svg data-v-fde0c5aa="" xmlns="http://www.w3.org/2000/svg" viewBox="0 0 300 300" class="iconLeftSlogan"><!----><defs data-v-fde0c5aa=""><linearGradient data-v-fde0c5aa="" gradientTransform="rotate(25)" id="20c7b442-99bf-4809-98a3-d42aec7be414" x1="0%" y1="0%" x2="100%" y2="0%"><stop data-v-fde0c5aa="" offset="0%" stop-color="#08C7D6" stop-opacity="1"></stop><stop data-v-fde0c5aa="" offset="100%" stop-color="#02023E" stop-opacity="1"></stop></linearGradient></defs><rect data-v-fde0c5aa="" fill="url(#20c7b442-99bf-4809-98a3-d42aec7be414)" x="0" y="0" width="300px" height="300px" class="logo-background-square"></rect><defs data-v-fde0c5aa=""><!----></defs><g data-v-fde0c5aa="" id="4bcb3e02-d13b-4f2a-a3e4-aa4c26b1e17f" fill="#ffffff" transform="matrix(2.3252335825565766,0,0,2.3252335825565766,109.2551046641481,127.89715993457314)"><path d="M2.83 10.65C4.45 10.65 5.29 9.73 5.29 7.85L5.29 1.09L2.53 1.09L2.53 1.51L4.79 1.51L4.79 7.84C4.79 9.55 4.09 10.19 2.83 10.19C1.75 10.19 1.05 9.65 0.78 8.23L0.29 8.29C0.56 9.97 1.48 10.65 2.83 10.65ZM14 10.22L13.44 10.22C12.99 10.22 12.88 10.00 12.88 9.60L12.88 5.54C12.88 3.93 12.03 3.14 10.39 3.14C8.83 3.14 8.02 3.86 7.85 5.05L8.34 5.10C8.53 4.00 9.17 3.54 10.37 3.54C11.76 3.54 12.39 4.21 12.39 5.60L12.39 6.33L10.68 6.33C8.71 6.33 7.53 7.07 7.53 8.57C7.53 9.79 8.32 10.64 9.80 10.64C11.14 10.64 12.03 10.01 12.39 8.83L12.39 9.63C12.39 10.22 12.60 10.64 13.34 10.64C13.64 10.64 13.87 10.63 14 10.61ZM9.80 10.23C8.65 10.23 8.01 9.56 8.01 8.55C8.01 7.25 9.04 6.72 10.81 6.72L12.39 6.72L12.39 7.03C12.39 8.82 11.61 10.23 9.80 10.23ZM18.24 10.64C19.92 10.64 20.66 9.46 20.85 8.41L20.34 8.37C20.12 9.38 19.54 10.21 18.24 10.21C16.38 10.21 15.79 8.74 15.79 6.82C15.79 4.58 16.70 3.57 18.20 3.57C19.32 3.57 20.06 4.09 20.29 5.19L20.80 5.15C20.57 3.98 19.75 3.14 18.20 3.14C16.53 3.14 15.26 4.21 15.26 6.83C15.26 8.99 16.04 10.64 18.24 10.64ZM27.54 10.50L28.11 10.50L24.92 6.59L28.01 3.28L27.40 3.28L23.56 7.38L23.56-0.24L23.09-0.24L23.09 10.50L23.56 10.50L23.56 7.94L24.60 6.93ZM38.01 7.87C38.01 6.69 37.17 5.64 35.53 5.54C36.90 5.31 37.46 4.30 37.46 3.30C37.46 1.71 36.26 1.09 34.29 1.09L32.30 1.09L32.30 10.50L34.68 10.50C36.46 10.50 38.01 9.77 38.01 7.87ZM37.49 7.85C37.49 9.38 36.37 10.07 34.69 10.07L32.80 10.07L32.80 5.78L34.51 5.78C36.51 5.78 37.49 6.51 37.49 7.85ZM36.96 3.33C36.96 4.42 36.30 5.35 34.44 5.35L32.80 5.35L32.80 1.51L34.48 1.51C36.11 1.51 36.96 2.20 36.96 3.33ZM46.23 10.22L45.67 10.22C45.22 10.22 45.11 10.00 45.11 9.60L45.11 5.54C45.11 3.93 44.25 3.14 42.62 3.14C41.06 3.14 40.25 3.86 40.08 5.05L40.57 5.10C40.75 4.00 41.40 3.54 42.60 3.54C43.99 3.54 44.62 4.21 44.62 5.60L44.62 6.33L42.91 6.33C40.94 6.33 39.76 7.07 39.76 8.57C39.76 9.79 40.54 10.64 42.03 10.64C43.37 10.64 44.25 10.01 44.62 8.83L44.62 9.63C44.62 10.22 44.83 10.64 45.57 10.64C45.86 10.64 46.10 10.63 46.23 10.61ZM42.03 10.23C40.88 10.23 40.24 9.56 40.24 8.55C40.24 7.25 41.27 6.72 43.04 6.72L44.62 6.72L44.62 7.03C44.62 8.82 43.83 10.23 42.03 10.23ZM52.50 10.50L53.07 10.50L49.88 6.59L52.98 3.28L52.36 3.28L48.52 7.38L48.52-0.24L48.05-0.24L48.05 10.50L48.52 10.50L48.52 7.94L49.56 6.93ZM56.97 10.64C58.62 10.64 59.18 9.97 59.67 8.99L59.22 8.85C58.77 9.74 58.31 10.22 56.98 10.22C55.23 10.22 54.49 8.86 54.49 7.04L54.49 6.93L59.75 6.93C59.75 6.89 59.77 6.57 59.77 6.52C59.77 4.68 59.19 3.14 56.95 3.14C55.22 3.14 53.97 4.21 53.97 6.87C53.97 9.17 54.91 10.64 56.97 10.64ZM56.95 3.54C58.58 3.54 59.25 4.62 59.25 6.37L59.25 6.51L54.49 6.51C54.53 4.33 55.64 3.54 56.95 3.54ZM64.83 3.71L64.83 3.22L64.61 3.22C63.56 3.22 62.73 4.00 62.50 4.98C62.51 4.30 62.48 3.77 62.47 3.28L62.01 3.28C62.02 3.79 62.03 4.51 62.03 5.03L62.03 10.50L62.52 10.50L62.52 6.06C62.52 5.01 63.24 3.71 64.57 3.71Z"></path></g><defs data-v-fde0c5aa=""><!----></defs><g data-v-fde0c5aa="" id="012be763-ce31-467b-b5d1-02769a453910" stroke="none" fill="#ffffff" transform="matrix(0.6325491383664846,0,0,0.6325491383664846,36.83725430816758,118.37254308167577)"><path d="M95 50a45 45 0 1 0-45 45 45 45 0 0 0 45-45zM50 87a37 37 0 1 1 37-37 37.042 37.042 0 0 1-37 37z"></path><path d="M50 32.803a3.981 3.981 0 1 0-3.982-3.981A3.981 3.981 0 0 0 50 32.803zM57.043 69.25c-1.378-.442-3.062-1.737-3.062-5.431v-24.25a.656.656 0 0 0-.656-.656H43.66a2.464 2.464 0 0 0-2.464 2.464 2.49 2.49 0 0 0 1.761 2.36c1.378.441 3.061 1.737 3.061 5.43V63.82c0 3.694-1.683 4.989-3.06 5.43a2.49 2.49 0 0 0-1.762 2.36 2.464 2.464 0 0 0 2.464 2.464h12.68a2.464 2.464 0 0 0 2.464-2.464 2.49 2.49 0 0 0-1.761-2.36z"></path></g><defs data-v-fde0c5aa=""><!----></defs><g data-v-fde0c5aa="" id="41a319ba-32c4-4b15-956e-89e23009f282" fill="#ffffff" transform="matrix(0.8776570134271151,0,0,0.8776570134271151,109.65734877672871,159.46622452647102)"><path d="M7.76 3.78L7.76 4.42L4.38 4.42L4.38 13.02L3.68 13.02L3.68 4.42L0.31 4.42L0.31 3.78L7.76 3.78ZM22.93 3.78L23.63 3.78L23.63 13.02L22.93 13.02L22.93 8.65L17.22 8.65L17.22 13.02L16.52 13.02L16.52 3.78L17.22 3.78L17.22 7.99L22.93 7.99L22.93 3.78ZM34.24 12.38L40.08 12.38L40.08 13.02L33.54 13.02L33.54 3.78L39.86 3.78L39.86 4.42L34.24 4.42L34.24 7.99L38.68 7.99L38.68 8.65L34.24 8.65L34.24 12.38ZM61.19 3.78L61.19 13.02L60.49 13.02L60.49 3.78L61.19 3.78ZM78.20 3.78L78.20 13.02L77.34 13.02L72.44 5.77L71.75 4.54L71.74 4.54L71.78 5.70L71.78 13.02L71.11 13.02L71.11 3.78L71.99 3.78L76.87 11.02L77.57 12.26L77.55 11.10L77.55 3.78L78.20 3.78ZM94.42 4.42L88.82 4.42L88.82 7.99L93.25 7.99L93.25 8.65L88.82 8.65L88.82 13.02L88.12 13.02L88.12 3.78L94.42 3.78L94.42 4.42ZM106.72 3.64L106.72 3.64Q108.02 3.64 108.98 4.22L108.98 4.22L108.98 4.22Q109.94 4.80 110.46 5.87L110.46 5.87L110.46 5.87Q110.98 6.94 110.98 8.40L110.98 8.40L110.98 8.40Q110.98 9.86 110.46 10.93L110.46 10.93L110.46 10.93Q109.94 12.00 108.98 12.58L108.98 12.58L108.98 12.58Q108.02 13.16 106.72 13.16L106.72 13.16L106.72 13.16Q105.42 13.16 104.46 12.58L104.46 12.58L104.46 12.58Q103.50 12.00 102.98 10.93L102.98 10.93L102.98 10.93Q102.47 9.86 102.47 8.40L102.47 8.40L102.47 8.40Q102.47 6.94 102.98 5.87L102.98 5.87L102.98 5.87Q103.50 4.80 104.46 4.22L104.46 4.22L104.46 4.22Q105.42 3.64 106.72 3.64L106.72 3.64ZM106.72 4.28L106.72 4.28Q105.64 4.28 104.85 4.78L104.85 4.78L104.85 4.78Q104.06 5.28 103.64 6.21L103.64 6.21L103.64 6.21Q103.21 7.14 103.21 8.40L103.21 8.40L103.21 8.40Q103.21 9.66 103.64 10.59L103.64 10.59L103.64 10.59Q104.06 11.52 104.85 12.02L104.85 12.02L104.85 12.02Q105.64 12.52 106.72 12.52L106.72 12.52L106.72 12.52Q107.80 12.52 108.60 12.02L108.60 12.02L108.60 12.02Q109.40 11.52 109.82 10.59L109.82 10.59L109.82 10.59Q110.25 9.66 110.25 8.40L110.25 8.40L110.25 8.40Q110.25 7.14 109.82 6.21L109.82 6.21L109.82 6.21Q109.40 5.28 108.60 4.78L108.60 4.78L108.60 4.78Q107.80 4.28 106.72 4.28L106.72 4.28ZM135.24 8.50L139.03 8.50L139.03 13.02L138.47 13.02L138.45 11.41L138.45 11.41Q138.07 12.25 137.26 12.71L137.26 12.71L137.26 12.71Q136.46 13.16 135.27 13.16L135.27 13.16L135.27 13.16Q134.01 13.16 133.06 12.58L133.06 12.58L133.06 12.58Q132.12 12.00 131.61 10.92L131.61 10.92L131.61 10.92Q131.10 9.84 131.10 8.40L131.10 8.40L131.10 8.40Q131.10 6.96 131.62 5.88L131.62 5.88L131.62 5.88Q132.15 4.80 133.10 4.22L133.10 4.22L133.10 4.22Q134.05 3.64 135.31 3.64L135.31 3.64L135.31 3.64Q136.72 3.64 137.62 4.20L137.62 4.20L137.62 4.20Q138.52 4.76 138.96 5.91L138.96 5.91L138.32 6.24L138.32 6.24Q138.00 5.28 137.24 4.78L137.24 4.78L137.24 4.78Q136.47 4.28 135.31 4.28L135.31 4.28L135.31 4.28Q134.27 4.28 133.49 4.78L133.49 4.78L133.49 4.78Q132.71 5.28 132.27 6.21L132.27 6.21L132.27 6.21Q131.84 7.14 131.84 8.40L131.84 8.40L131.84 8.40Q131.84 10.32 132.75 11.42L132.75 11.42L132.75 11.42Q133.67 12.52 135.30 12.52L135.30 12.52L135.30 12.52Q136.30 12.52 137.00 12.12L137.00 12.12L137.00 12.12Q137.70 11.72 138.04 11.07L138.04 11.07L138.04 11.07Q138.38 10.42 138.38 9.67L138.38 9.67L138.38 9.16L135.24 9.16L135.24 8.50ZM155.53 3.78L155.53 9.65L155.53 9.65Q155.53 11.35 154.60 12.26L154.60 12.26L154.60 12.26Q153.68 13.16 151.97 13.16L151.97 13.16L151.97 13.16Q150.26 13.16 149.33 12.26L149.33 12.26L149.33 12.26Q148.40 11.35 148.40 9.65L148.40 9.65L148.40 3.78L149.10 3.78L149.10 9.51L149.10 9.51Q149.10 10.99 149.83 11.75L149.83 11.75L149.83 11.75Q150.56 12.52 151.97 12.52L151.97 12.52L151.97 12.52Q153.37 12.52 154.10 11.75L154.10 11.75L154.10 11.75Q154.83 10.99 154.83 9.51L154.83 9.51L154.83 3.78L155.53 3.78ZM171.30 3.78L168.03 9.42L168.03 13.02L167.33 13.02L167.33 9.42L164.05 3.78L164.88 3.78L167.68 8.69L170.48 3.78L171.30 3.78Z"></path></g></svg>