<svg data-v-fde0c5aa="" xmlns="http://www.w3.org/2000/svg" viewBox="0 0 300 300" class="font"><!----><defs data-v-fde0c5aa=""><linearGradient data-v-fde0c5aa="" gradientTransform="rotate(25)" id="25699ef8-8e03-46b6-9978-99006c041c74" x1="0%" y1="0%" x2="100%" y2="0%"><stop data-v-fde0c5aa="" offset="0%" stop-color="#08C7D6" stop-opacity="1"></stop><stop data-v-fde0c5aa="" offset="100%" stop-color="#02023E" stop-opacity="1"></stop></linearGradient></defs><rect data-v-fde0c5aa="" fill="url(#25699ef8-8e03-46b6-9978-99006c041c74)" x="0" y="0" width="300px" height="300px" class="logo-background-square"></rect><defs data-v-fde0c5aa=""><!----></defs><g data-v-fde0c5aa="" id="55883523-d215-475a-8909-a1b3d2c46267" fill="#ffffff" transform="matrix(3.408738718301929,0,0,3.408738718301929,39.01146569854884,132.25751604401123)"><path d="M2.83 10.65C4.45 10.65 5.29 9.73 5.29 7.85L5.29 1.09L2.53 1.09L2.53 1.51L4.79 1.51L4.79 7.84C4.79 9.55 4.09 10.19 2.83 10.19C1.75 10.19 1.05 9.65 0.78 8.23L0.29 8.29C0.56 9.97 1.48 10.65 2.83 10.65ZM14 10.22L13.44 10.22C12.99 10.22 12.88 10.00 12.88 9.60L12.88 5.54C12.88 3.93 12.03 3.14 10.39 3.14C8.83 3.14 8.02 3.86 7.85 5.05L8.34 5.10C8.53 4.00 9.17 3.54 10.37 3.54C11.76 3.54 12.39 4.21 12.39 5.60L12.39 6.33L10.68 6.33C8.71 6.33 7.53 7.07 7.53 8.57C7.53 9.79 8.32 10.64 9.80 10.64C11.14 10.64 12.03 10.01 12.39 8.83L12.39 9.63C12.39 10.22 12.60 10.64 13.34 10.64C13.64 10.64 13.87 10.63 14 10.61ZM9.80 10.23C8.65 10.23 8.01 9.56 8.01 8.55C8.01 7.25 9.04 6.72 10.81 6.72L12.39 6.72L12.39 7.03C12.39 8.82 11.61 10.23 9.80 10.23ZM18.24 10.64C19.92 10.64 20.66 9.46 20.85 8.41L20.34 8.37C20.12 9.38 19.54 10.21 18.24 10.21C16.38 10.21 15.79 8.74 15.79 6.82C15.79 4.58 16.70 3.57 18.20 3.57C19.32 3.57 20.06 4.09 20.29 5.19L20.80 5.15C20.57 3.98 19.75 3.14 18.20 3.14C16.53 3.14 15.26 4.21 15.26 6.83C15.26 8.99 16.04 10.64 18.24 10.64ZM27.54 10.50L28.11 10.50L24.92 6.59L28.01 3.28L27.40 3.28L23.56 7.38L23.56-0.24L23.09-0.24L23.09 10.50L23.56 10.50L23.56 7.94L24.60 6.93ZM38.01 7.87C38.01 6.69 37.17 5.64 35.53 5.54C36.90 5.31 37.46 4.30 37.46 3.30C37.46 1.71 36.26 1.09 34.29 1.09L32.30 1.09L32.30 10.50L34.68 10.50C36.46 10.50 38.01 9.77 38.01 7.87ZM37.49 7.85C37.49 9.38 36.37 10.07 34.69 10.07L32.80 10.07L32.80 5.78L34.51 5.78C36.51 5.78 37.49 6.51 37.49 7.85ZM36.96 3.33C36.96 4.42 36.30 5.35 34.44 5.35L32.80 5.35L32.80 1.51L34.48 1.51C36.11 1.51 36.96 2.20 36.96 3.33ZM46.23 10.22L45.67 10.22C45.22 10.22 45.11 10.00 45.11 9.60L45.11 5.54C45.11 3.93 44.25 3.14 42.62 3.14C41.06 3.14 40.25 3.86 40.08 5.05L40.57 5.10C40.75 4.00 41.40 3.54 42.60 3.54C43.99 3.54 44.62 4.21 44.62 5.60L44.62 6.33L42.91 6.33C40.94 6.33 39.76 7.07 39.76 8.57C39.76 9.79 40.54 10.64 42.03 10.64C43.37 10.64 44.25 10.01 44.62 8.83L44.62 9.63C44.62 10.22 44.83 10.64 45.57 10.64C45.86 10.64 46.10 10.63 46.23 10.61ZM42.03 10.23C40.88 10.23 40.24 9.56 40.24 8.55C40.24 7.25 41.27 6.72 43.04 6.72L44.62 6.72L44.62 7.03C44.62 8.82 43.83 10.23 42.03 10.23ZM52.50 10.50L53.07 10.50L49.88 6.59L52.98 3.28L52.36 3.28L48.52 7.38L48.52-0.24L48.05-0.24L48.05 10.50L48.52 10.50L48.52 7.94L49.56 6.93ZM56.97 10.64C58.62 10.64 59.18 9.97 59.67 8.99L59.22 8.85C58.77 9.74 58.31 10.22 56.98 10.22C55.23 10.22 54.49 8.86 54.49 7.04L54.49 6.93L59.75 6.93C59.75 6.89 59.77 6.57 59.77 6.52C59.77 4.68 59.19 3.14 56.95 3.14C55.22 3.14 53.97 4.21 53.97 6.87C53.97 9.17 54.91 10.64 56.97 10.64ZM56.95 3.54C58.58 3.54 59.25 4.62 59.25 6.37L59.25 6.51L54.49 6.51C54.53 4.33 55.64 3.54 56.95 3.54ZM64.83 3.71L64.83 3.22L64.61 3.22C63.56 3.22 62.73 4.00 62.50 4.98C62.51 4.30 62.48 3.77 62.47 3.28L62.01 3.28C62.02 3.79 62.03 4.51 62.03 5.03L62.03 10.50L62.52 10.50L62.52 6.06C62.52 5.01 63.24 3.71 64.57 3.71Z"></path></g><!----><!----></svg>